<?xml version="1.0" encoding="UTF-8" standalone="no"?>
<svg
   xmlns:dc="http://purl.org/dc/elements/1.1/"
   xmlns:cc="http://creativecommons.org/ns#"
   xmlns:rdf="http://www.w3.org/1999/02/22-rdf-syntax-ns#"
   xmlns:svg="http://www.w3.org/2000/svg"
   xmlns="http://www.w3.org/2000/svg"
   id="svg2334"
   version="1.1"
   viewBox="0 0 90 90"
   height="90mm"
   width="90mm">
  <defs
     id="defs2328" />
  <metadata
     id="metadata2331">
    <rdf:RDF>
      <cc:Work
         rdf:about="">
        <dc:format>image/svg+xml</dc:format>
        <dc:type
           rdf:resource="http://purl.org/dc/dcmitype/StillImage" />
        <dc:title></dc:title>
      </cc:Work>
    </rdf:RDF>
  </metadata>
  <g
     transform="translate(0,-207)"
     id="layer1">
    <g
       id="g4007"
       transform="matrix(0.35277777,0,0,-0.35277777,-160.63844,728.67905)">
      <path
         id="path624"
         style="fill:#28292a;fill-opacity:1;fill-rule:nonzero;stroke:none;stroke-width:0.1"
         d="m 536.865,1348.41 c 17.318,2.09 31.238,-1.53 35.293,-5.48 4.056,-3.94 1.37,-16.77 0.548,-21.7 -1.863,-11.18 -11.139,-19.85 -31.237,-16 -17.757,3.4 -18.422,21.45 -18.697,24.77 -0.408,4.93 -2.81,16.38 14.093,18.41 z m 58.895,-5.48 c 4.056,3.95 17.976,7.57 35.294,5.48 16.902,-2.03 14.501,-13.48 14.093,-18.41 -0.275,-3.32 -0.941,-21.37 -18.697,-24.77 -20.098,-3.85 -29.374,4.82 -31.238,16 -0.821,4.93 -3.507,17.76 0.548,21.7 z m -81.595,-8.16 c 0.404,-0.52 1.054,-0.81 1.716,-0.81 h 2.314 c 0,0 1.17,-20.73 11.399,-27.75 10.23,-7.01 26.939,-6.7 34.636,-2.77 5.429,2.77 9.207,7.16 11.107,13.73 1.9,6.58 2.417,16.08 8.622,16.08 6.948,0 6.723,-9.5 8.623,-16.08 1.9,-6.57 5.678,-10.96 11.106,-13.73 7.698,-3.93 24.406,-4.24 34.636,2.77 10.23,7.02 11.399,27.75 11.399,27.75 h 2.315 c 0.662,0 1.312,0.29 1.716,0.81 3.161,4.11 2.852,8.05 2.439,9.92 -0.154,0.7 -0.65,1.25 -1.301,1.53 -6.31,2.76 -16.064,9.05 -37.028,8.22 -16.004,-0.64 -26.627,-4.5 -31.257,-6.57 -1.694,-0.76 -3.601,-0.76 -5.295,0 -4.63,2.07 -15.254,5.93 -31.258,6.57 -20.964,0.83 -30.717,-5.46 -37.028,-8.22 -0.651,-0.28 -1.147,-0.83 -1.3,-1.53 -0.414,-1.87 -0.723,-5.81 2.439,-9.92" />
      <path
         id="path626"
         style="fill:#28292a;fill-opacity:1;fill-rule:nonzero;stroke:none;stroke-width:0.1"
         d="m 528.193,1304.93 1.023,0.07 c -0.612,-4.98 -1.143,-19.48 10.754,-31.96 14.627,-15.34 33.916,-30.83 43.989,-31.12 10.074,0.29 29.362,15.78 43.99,31.12 11.897,12.48 11.366,26.98 10.754,31.96 l 1.023,-0.07 c 0,0 4.258,-17.04 -10.72,-32.75 -14.979,-15.71 -34.731,-31.57 -45.047,-31.87 -10.315,0.3 -30.067,16.16 -45.045,31.87 -14.979,15.71 -10.721,32.75 -10.721,32.75" />
      <path
         id="path628"
         style="fill:#28292a;fill-opacity:1;fill-rule:nonzero;stroke:none;stroke-width:0.1"
         d="m 602.022,1282.2 c 1.204,-0.26 1.322,-1.98 0.881,-2.97 -0.44,-0.99 -2.092,-1.32 -3.304,0 -1.211,1.32 -0.661,3.63 2.423,2.97" />
      <path
         id="path630"
         style="fill:#28292a;fill-opacity:1;fill-rule:nonzero;stroke:none;stroke-width:0.1"
         d="m 589.357,1291.34 c 1.029,0.68 2.092,-0.77 0.66,-2.09 -1.431,-1.32 -6.718,-2.61 -10.683,1.06 0,0 6.168,-1.5 10.023,1.03" />
      <path
         id="path632"
         style="fill:#28292a;fill-opacity:1;fill-rule:nonzero;stroke:none;stroke-width:0.1"
         d="m 586.934,1266.89 c 1.875,-0.03 3.702,-0.44 3.778,-1.76 0.076,-1.32 -15.233,-1.32 -27.788,9.25 0,0 12.555,-7.27 24.01,-7.49" />
      <path
         id="path634"
         style="fill:#28292a;fill-opacity:1;fill-rule:nonzero;stroke:none;stroke-width:0.1"
         d="m 686.276,1334.52 c -5.874,5.06 -5.286,13.14 -5.286,13.14 7.636,13.07 1.615,33.33 1.615,33.33 0.294,5.44 -4.699,22.18 -4.699,22.18 -8.664,33.33 -37.884,49.2 -56.83,54.62 -15.773,4.52 -28.578,0.6 -37.151,-1.91 -8.574,2.51 -21.379,6.43 -37.151,1.91 -18.947,-5.42 -48.167,-21.29 -56.831,-54.62 0,0 -4.993,-16.74 -4.698,-22.18 0,0 -6.022,-20.26 1.615,-33.33 0,0 0.587,-8.08 -5.287,-13.14 0,0 3.377,0.22 5.58,3.89 0,0 -0.146,-4.41 -1.762,-6.76 0,0 4.112,1.76 4.846,4.99 0,0 -0.734,-8.07 -3.671,-11.82 0,0 3.671,-0.07 6.902,4.34 0,0 1.174,-3.68 -1.029,-7.35 0,0 2.791,-0.44 4.846,3.01 0,0 -1.762,-8.73 -1.174,-12.11 0,0 4.405,-2.06 10.132,-1.03 0,0 -1.615,-10.13 13.657,-17.92 0,0 -3.083,3.38 -3.377,8.96 0,0 2.496,-6.46 6.461,-9.69 l 3.965,-2.35 c 0,0 -1.762,9.55 -0.147,15.27 0,0 -8.262,8.42 -9.866,22.56 l 0.061,3.36 c 0,0 -0.12,0 -0.314,0 -0.002,0.08 -0.012,0.15 -0.014,0.22 0,0 -4.111,-0.59 -6.02,7.05 0,0 -0.067,0.17 -0.157,0.43 -0.608,2.75 -0.253,5.28 0.624,6.76 0.532,0.64 1.28,1.21 2.323,1.62 5.58,2.2 4.406,1.91 4.406,1.91 0,0 -3.007,31.76 27.019,48.97 16.622,9.54 26.23,11.31 39.061,12.15 12.83,-0.84 22.056,-1.29 39.06,-12.15 29.176,-18.62 27.019,-48.97 27.019,-48.97 0,0 -1.174,0.29 4.406,-1.91 1.042,-0.41 1.791,-0.97 2.322,-1.62 0.878,-1.48 1.232,-4.01 0.625,-6.76 -0.09,-0.26 -0.157,-0.43 -0.157,-0.43 -1.909,-7.64 -6.02,-7.05 -6.02,-7.05 -0.002,-0.07 -0.011,-0.14 -0.014,-0.22 -0.194,0 -0.314,0 -0.314,0 l 0.061,-3.36 c -1.604,-14.14 -9.866,-22.56 -9.866,-22.56 1.615,-5.72 -0.147,-15.27 -0.147,-15.27 l 3.965,2.35 c 3.965,3.23 6.461,9.69 6.461,9.69 -0.293,-5.58 -3.377,-8.96 -3.377,-8.96 15.272,7.79 13.657,17.92 13.657,17.92 5.727,-1.03 10.132,1.03 10.132,1.03 0.588,3.38 -1.174,12.11 -1.174,12.11 2.055,-3.45 4.846,-3.01 4.846,-3.01 -2.203,3.67 -1.028,7.35 -1.028,7.35 3.23,-4.41 6.901,-4.34 6.901,-4.34 -2.937,3.75 -3.671,11.82 -3.671,11.82 0.734,-3.23 4.846,-4.99 4.846,-4.99 -1.615,2.35 -1.762,6.76 -1.762,6.76 2.203,-3.67 5.58,-3.89 5.58,-3.89" />
      <path
         id="path636"
         style="fill:#28292a;fill-opacity:1;fill-rule:nonzero;stroke:none;stroke-width:0.1"
         d="m 555.985,1333.33 -5.512,-5.26 2.239,7.26 c -0.713,0.22 -1.455,0.37 -2.239,0.37 -4.218,0 -7.637,-3.42 -7.637,-7.63 0,-4.22 3.419,-7.64 7.637,-7.64 4.217,0 7.635,3.42 7.635,7.64 0,2.04 -0.815,3.89 -2.123,5.26" />
      <path
         id="path638"
         style="fill:#28292a;fill-opacity:1;fill-rule:nonzero;stroke:none;stroke-width:0.1"
         d="m 622.067,1333.33 -5.513,-5.26 2.24,7.26 c -0.713,0.22 -1.455,0.37 -2.24,0.37 -4.218,0 -7.636,-3.42 -7.636,-7.63 0,-4.22 3.418,-7.64 7.636,-7.64 4.217,0 7.636,3.42 7.636,7.64 0,2.04 -0.815,3.89 -2.123,5.26" />
    </g>
  </g>
</svg>
